HIERARCHY
ROOT hip
{
  OFFSET 0 0 0
  CHANNELS 6 Xposition Yposition Zposition Zrotation Yrotation Xrotation
  JOINT abdomen
  {
    OFFSET 0 20.6881 -0.73152
    CHANNELS 3 Zrotation Xrotation Yrotation
    JOINT chest
    {
      OFFSET 0 11.7043 -0.48768
      CHANNELS 3 Zrotation Xrotation Yrotation
      JOINT neck
      {
        OFFSET 0 22.1894 -2.19456
        CHANNELS 3 Zrotation Xrotation Yrotation
        JOINT head
        {
          OFFSET -0.24384 7.07133 1.2192
          CHANNELS 3 Zrotation Xrotation Yrotation
          JOINT leftEye
          {
            OFFSET 4.14528 8.04674 8.04672
            CHANNELS 3 Zrotation Xrotation Yrotation
            End Site
            {
              OFFSET 1 0 0
            }
          }
          JOINT rightEye
          {
            OFFSET -3.6576 8.04674 8.04672
            CHANNELS 3 Zrotation Xrotation Yrotation
            End Site
            {
              OFFSET 1 0 0
            }
          }
        }
      }
      JOINT rCollar
      {
        OFFSET -2.68224 19.2634 -4.8768
        CHANNELS 3 Zrotation Xrotation Yrotation
        JOINT rShldr
        {
          OFFSET -8.77824 -1.95073 1.46304
          CHANNELS 3 Zrotation Xrotation Yrotation
          JOINT rForeArm
          {
            OFFSET -28.1742 -1.7115 0.48768
            CHANNELS 3 Zrotation Xrotation Yrotation
            JOINT rHand
            {
              OFFSET -22.5879 0.773209 7.07136
              CHANNELS 3 Zrotation Xrotation Yrotation
              JOINT rThumb1
              {
                OFFSET -1.2192 -0.487915 3.41376
                CHANNELS 3 Zrotation Xrotation Yrotation
                JOINT rThumb2
                {
                  OFFSET -3.37035 -0.52449 3.41376
                  CHANNELS 3 Zrotation Xrotation Yrotation
                  End Site
                  {
                    OFFSET -1.78271 -1.18214 1.43049
                  }
                }
              }
              JOINT rIndex1
              {
                OFFSET -7.75947 0.938293 5.60832
                CHANNELS 3 Zrotation Xrotation Yrotation
                JOINT rIndex2
                {
                  OFFSET -2.54057 -0.884171 1.56538
                  CHANNELS 3 Zrotation Xrotation Yrotation
                  End Site
                  {
                    OFFSET -1.62519 -0.234802 1.16502
                  }
                }
              }
              JOINT rMid1
              {
                OFFSET -8.24714 1.18213 3.41376
                CHANNELS 3 Zrotation Xrotation Yrotation
                JOINT rMid2
                {
                  OFFSET -3.10165 -0.590103 1.0647
                  CHANNELS 3 Zrotation Xrotation Yrotation
                  End Site
                  {
                    OFFSET -2.48547 -0.328903 0.83742
                  }
                }
              }
              JOINT rRing1
              {
                OFFSET -8.82822 0.546677 1.51678
                CHANNELS 3 Zrotation Xrotation Yrotation
                JOINT rRing2
                {
                  OFFSET -2.60934 -0.819778 -0.0198488
                  CHANNELS 3 Zrotation Xrotation Yrotation
                  End Site
                  {
                    OFFSET -2.33842 -0.294052 0.168128
                  }
                }
              }
              JOINT rPinky1
              {
                OFFSET -8.27202 -0.0477905 -0.4584
                CHANNELS 3 Zrotation Xrotation Yrotation
                JOINT rPinky2
                {
                  OFFSET -1.82734 -0.647385 -0.700984
                  CHANNELS 3 Zrotation Xrotation Yrotation
                  End Site
                  {
                    OFFSET -1.69225 -0.51767 -0.607171
                  }
                }
              }
            }
          }
        }
      }
      JOINT lCollar
      {
        OFFSET 2.68224 19.2634 -4.8768
        CHANNELS 3 Zrotation Xrotation Yrotation
        JOINT lShldr
        {
          OFFSET 8.77824 -1.95073 1.46304
          CHANNELS 3 Zrotation Xrotation Yrotation
          JOINT lForeArm
          {
            OFFSET 28.1742 -1.7115 0.48768
            CHANNELS 3 Zrotation Xrotation Yrotation
            JOINT lHand
            {
              OFFSET 22.5879 0.773209 7.07136
              CHANNELS 3 Zrotation Xrotation Yrotation
              JOINT lThumb1
              {
                OFFSET 1.2192 -0.487915 3.41376
                CHANNELS 3 Zrotation Xrotation Yrotation
                JOINT lThumb2
                {
                  OFFSET 3.37035 -0.52449 3.41376
                  CHANNELS 3 Zrotation Xrotation Yrotation
                  End Site
                  {
                    OFFSET 1.78271 -1.18214 1.43049
                  }
                }
              }
              JOINT lIndex1
              {
                OFFSET 7.75947 0.938293 5.60832
                CHANNELS 3 Zrotation Xrotation Yrotation
                JOINT lIndex2
                {
                  OFFSET 2.54057 -0.884171 1.56538
                  CHANNELS 3 Zrotation Xrotation Yrotation
                  End Site
                  {
                    OFFSET 1.62519 -0.234802 1.16502
                  }
                }
              }
              JOINT lMid1
              {
                OFFSET 8.24714 1.18213 3.41376
                CHANNELS 3 Zrotation Xrotation Yrotation
                JOINT lMid2
                {
                  OFFSET 3.10165 -0.590103 1.0647
                  CHANNELS 3 Zrotation Xrotation Yrotation
                  End Site
                  {
                    OFFSET 2.48547 -0.328903 0.83742
                  }
                }
              }
              JOINT lRing1
              {
                OFFSET 8.82822 0.546677 1.51678
                CHANNELS 3 Zrotation Xrotation Yrotation
                JOINT lRing2
                {
                  OFFSET 2.60934 -0.819778 -0.0198488
                  CHANNELS 3 Zrotation Xrotation Yrotation
                  End Site
                  {
                    OFFSET 2.33842 -0.294052 0.168128
                  }
                }
              }
              JOINT lPinky1
              {
                OFFSET 8.27202 -0.0477905 -0.4584
                CHANNELS 3 Zrotation Xrotation Yrotation
                JOINT lPinky2
                {
                  OFFSET 1.82734 -0.647385 -0.700984
                  CHANNELS 3 Zrotation Xrotation Yrotation
                  End Site
                  {
                    OFFSET 1.69225 -0.51767 -0.607171
                  }
                }
              }
            }
          }
        }
      }
    }
  }
  JOINT rButtock
  {
    OFFSET -8.77824 4.35084 1.2192
    CHANNELS 3 Zrotation Xrotation Yrotation
    JOINT rThigh
    {
      OFFSET 0 -1.70687 -2.19456
      CHANNELS 3 Zrotation Xrotation Yrotation
      JOINT rShin
      {
        OFFSET 0 -36.8199 0.73152
        CHANNELS 3 Zrotation Xrotation Yrotation
        JOINT rFoot
        {
          OFFSET 0.73152 -45.1104 -5.12064
          CHANNELS 3 Zrotation Xrotation Yrotation
          End Site
          {
            OFFSET -1.1221 -3.69964 12.103
          }
        }
      }
    }
  }
  JOINT lButtock
  {
    OFFSET 8.77824 4.35084 1.2192
    CHANNELS 3 Zrotation Xrotation Yrotation
    JOINT lThigh
    {
      OFFSET 0 -1.70687 -2.19456
      CHANNELS 3 Zrotation Xrotation Yrotation
      JOINT lShin
      {
        OFFSET 0 -36.8199 0.73152
        CHANNELS 3 Zrotation Xrotation Yrotation
        JOINT lFoot
        {
          OFFSET -0.73152 -45.1104 -5.12064
          CHANNELS 3 Zrotation Xrotation Yrotation
          End Site
          {
            OFFSET 1.1221 -3.69964 12.103
          }
        }
      }
    }
  }
}
MOTION
Frames:	4
Frame Time:	0.00833333
36.7903 85.2022 48.9936 0.0 0.0 0.0 0.602232 -0.00285578 0.0171681 0.166044 -0.00431807 0.0287692 1.08588e-14 7.95139e-16 -1.42877e-16 3.25168e-14 9.54166e-15 -4.14652e-16 -0.0 0.0 0.0 -0.0 0.0 0.0 5.36602e-15 -2.52363e-18 9.93923e-17 1.14115e-13 -4.09993e-16 -3.97569e-16 1.96673e-12 -5.85818e-13 -5.40694e-14 2.24194e-11 5.78886e-13 -2.63986e-13 5.28955e-11 -1.07765e-14 -6.67916e-13 9.13372e-11 -2.22639e-14 -1.16249e-12 5.2897e-11 -1.27222e-14 -6.80639e-13 7.73091 5.47488 0.417314 5.28931e-11 -1.14301e-14 -6.71097e-13 2.90554 0.965183 0.102902 5.28918e-11 -1.14301e-14 -6.71892e-13 10.2786 0.731801 0.0259123 5.28916e-11 -7.55382e-15 -6.64736e-13 2.22167 -0.733487 -0.20892 5.16992e-15 -4.65902e-18 -1.98785e-16 1.12568e-13 -3.91357e-16 -1.78906e-15 1.95535e-12 5.83433e-13 -3.81667e-14 2.2427e-11 -5.96602e-13 -2.60805e-13 5.28948e-11 -2.34755e-14 -6.71097e-13 9.13586e-11 -4.13472e-14 -1.16647e-12 5.2891e-11 -2.38542e-14 -6.64736e-13 -7.73091 5.47488 -0.417314 5.28963e-11 -2.42517e-14 -6.71097e-13 -2.90554 0.965183 -0.102902 5.28906e-11 -2.38542e-14 -6.70302e-13 -10.2786 0.731801 -0.0259123 5.29065e-11 -1.82882e-14 -6.80639e-13 -2.22167 -0.733487 0.20892 -2.03217e-16 0.0 -3.88251e-19 0.985603 -4.60216 -0.0812472 -0.00202348 2.78413 -0.00804865 -0.532787 1.81805 0.0982474 2.03217e-16 0.0 3.88251e-19 -0.0700169 -2.29254 0.0218578 0.00846561 -1.39933 0.0723246 0.526024 3.69177 -0.136064
36.6118 84.5062 42.1718 -179.528 -3.3831 -174.055 0.716115 -1.0981 2.98734 -0.0437455 0.524321 0.879249 2.55485 5.08159 4.48185 -6.95488 -6.40857 7.60867 -0.0 0.0 0.0 -0.0 0.0 0.0 -6.36955e-15 1.9715e-14 4.44521e-14 8.94864 0.557236 2.08517 -27.6788 -25.1455 13.4467 0.00753679 1.92676 0.270236 1.75812e-10 -2.66512e-10 -2.49448e-10 3.0328e-10 -4.62837e-10 -4.32175e-10 1.75812e-10 -2.66513e-10 -2.49459e-10 7.73091 5.47488 0.417314 1.7581e-10 -2.66511e-10 -2.49453e-10 2.90554 0.965183 0.102902 1.75809e-10 -2.66511e-10 -2.4945e-10 10.2786 0.731801 0.0259123 1.75808e-10 -2.66508e-10 -2.49441e-10 2.22167 -0.733487 -0.20892 -6.53479e-15 1.97136e-14 4.41947e-14 -9.32529 3.9694 -8.57871 27.5256 -25.0199 -13.5132 -0.0193672 3.08779 -0.431687 -4.41563e-12 4.72954e-10 -1.75468e-10 -9.88663e-12 8.18072e-10 -3.02681e-10 -4.41974e-12 4.72954e-10 -1.75461e-10 -7.73091 5.47488 -0.417314 -4.41622e-12 4.72955e-10 -1.75471e-10 -2.90554 0.965183 -0.102902 -4.42027e-12 4.72952e-10 -1.75466e-10 -10.2786 0.731801 -0.0259123 -4.40616e-12 4.72957e-10 -1.75474e-10 -2.22167 -0.733487 0.20892 -2.03217e-16 0.0 -3.88251e-19 0.259052 -4.89028 2.83662 -0.0019726 4.94432 0.0334307 -0.621018 0.112886 -3.86877 2.03217e-16 0.0 3.88251e-19 1.17336 -2.56276 -1.77482 0.00305097 0.906389 0.018686 0.572451 0.596552 2.14119
36.636 84.4787 42.1505 -179.488 -3.1995 -174.04 0.961947 -2.24767 6.15191 -0.289194 1.07879 1.78454 4.39911 10.3924 9.37037 -12.4852 -12.8402 16.0185 -0.0 0.0 0.0 -0.0 0.0 0.0 -1.93086e-14 4.28367e-14 9.39972e-14 18.3803 1.13459 4.26507 -39.6058 -46.3891 37.7652 -0.00432011 3.97008 0.55786 3.14218e-10 -5.56846e-10 -5.24111e-10 5.41975e-10 -9.67089e-10 -9.08058e-10 3.14216e-10 -5.56845e-10 -5.2412e-10 7.73091 5.47488 0.417314 3.14215e-10 -5.56844e-10 -5.24119e-10 2.90554 0.965183 0.102902 3.14215e-10 -5.56845e-10 -5.24111e-10 10.2786 0.731801 0.0259123 3.14214e-10 -5.56843e-10 -5.24101e-10 2.22167 -0.733487 -0.20892 -1.94432e-14 4.2836e-14 9.37829e-14 -17.8993 7.88047 -17.7861 39.3731 -46.1085 -37.7946 0.011037 6.35202 -0.89231 -7.11604e-11 1.001e-09 -3.6819e-10 -1.27698e-10 1.73135e-09 -6.35058e-10 -7.11648e-11 1.001e-09 -3.68184e-10 -7.73091 5.47488 -0.417314 -7.11632e-11 1.001e-09 -3.68198e-10 -2.90554 0.965183 -0.102902 -7.11654e-11 1.00099e-09 -3.68187e-10 -10.2786 0.731801 -0.0259123 -7.11532e-11 1.001e-09 -3.68192e-10 -2.22167 -0.733487 0.20892 -2.03217e-16 0.0 -3.88251e-19 -0.475099 -5.18014 5.92565 -0.00535258 7.22205 0.0775466 -0.970713 -1.67224 -8.06514 2.03217e-16 0.0 3.88251e-19 2.47158 -2.83338 -3.67325 0.00201285 3.31721 -0.0375575 0.888403 -2.65496 4.55734
36.6009 84.4261 42.1145 -179.729 -2.9231 -174.098 1.28347 -3.25313 8.94056 -0.510404 1.58018 2.58108 5.23438 14.8657 13.8655 -15.696 -17.8421 23.8979 -0.0 0.0 0.0 -0.0 0.0 0.0 -2.98407e-14 5.91501e-14 1.33157e-13 26.7245 1.66285 6.25787 -31.2244 -51.6847 73.4162 -0.0321502 5.77975 0.814389 4.21646e-10 -7.99514e-10 -7.47008e-10 7.27165e-10 -1.38847e-09 -1.2942e-09 4.21643e-10 -7.99512e-10 -7.47015e-10 7.73091 5.47488 0.417314 4.21643e-10 -7.9951e-10 -7.47017e-10 2.90554 0.965183 0.102902 4.21643e-10 -7.99512e-10 -7.47006e-10 10.2786 0.731801 0.0259123 4.21642e-10 -7.9951e-10 -7.46994e-10 2.22167 -0.733487 -0.20892 -2.99442e-14 5.915e-14 1.32982e-13 -24.4902 10.8384 -26.1752 31.2356 -51.3762 -73.1022 0.0830421 9.26125 -1.31026 -1.19037e-10 1.41891e-09 -5.25061e-10 -2.12377e-10 2.4543e-09 -9.05711e-10 -1.19041e-10 1.41891e-09 -5.25054e-10 -7.73091 5.47488 -0.417314 -1.19041e-10 1.41891e-09 -5.25072e-10 -2.90554 0.965183 -0.102902 -1.19042e-10 1.4189e-09 -5.25056e-10 -10.2786 0.731801 -0.0259123 -1.19032e-10 1.41891e-09 -5.25059e-10 -2.22167 -0.733487 0.20892 -2.03217e-16 0.0 -3.88251e-19 -1.10668 -5.42199 8.67997 -0.0113668 9.26466 0.11753 -1.50164 -3.2269 -11.8217 2.03217e-16 0.0 3.88251e-19 3.60936 -3.09329 -5.37065 0.00519557 5.51782 -0.0889675 1.40378 -5.5544 6.72651
